<mxfile host="Electron" modified="2023-09-10T19:50:15.242Z" agent="Mozilla/5.0 (Windows NT 10.0; Win64; x64) AppleWebKit/537.36 (KHTML, like Gecko) draw.io/21.6.8 Chrome/114.0.5735.289 Electron/25.5.0 Safari/537.36" etag="rQgwoANAfFVQwh00Oz_p" version="21.6.8" type="device">
  <diagram name="Página-1" id="Nt9rhqyGMMa1Pvm4Kn5T">
    <mxGraphModel dx="1418" dy="827" grid="1" gridSize="10" guides="1" tooltips="1" connect="1" arrows="1" fold="1" page="1" pageScale="1" pageWidth="827" pageHeight="1169" math="0" shadow="0">
      <root>
        <mxCell id="0" />
        <mxCell id="1" parent="0" />
        <mxCell id="kGepoieiEPkH4ZKb8_Zw-2" value="Sistema&lt;br&gt;" style="verticalAlign=top;align=left;spacingTop=8;spacingLeft=2;spacingRight=12;shape=cube;size=10;direction=south;fontStyle=4;html=1;whiteSpace=wrap;" parent="1" vertex="1">
          <mxGeometry x="220" y="330" width="380" height="390" as="geometry" />
        </mxCell>
        <mxCell id="kGepoieiEPkH4ZKb8_Zw-9" style="edgeStyle=orthogonalEdgeStyle;rounded=0;orthogonalLoop=1;jettySize=auto;html=1;entryX=0;entryY=0.5;entryDx=0;entryDy=0;" parent="1" source="kGepoieiEPkH4ZKb8_Zw-1" target="kGepoieiEPkH4ZKb8_Zw-3" edge="1">
          <mxGeometry relative="1" as="geometry" />
        </mxCell>
        <mxCell id="kGepoieiEPkH4ZKb8_Zw-1" value="´Paciente&lt;br&gt;" style="shape=umlActor;verticalLabelPosition=bottom;verticalAlign=top;html=1;" parent="1" vertex="1">
          <mxGeometry x="140" y="405" width="30" height="60" as="geometry" />
        </mxCell>
        <mxCell id="kGepoieiEPkH4ZKb8_Zw-3" value="Enviar reporte al tratamiento al correo" style="ellipse;whiteSpace=wrap;html=1;" parent="1" vertex="1">
          <mxGeometry x="260" y="400" width="140" height="70" as="geometry" />
        </mxCell>
        <mxCell id="kGepoieiEPkH4ZKb8_Zw-4" value="" style="endArrow=block;dashed=1;endFill=0;endSize=12;html=1;rounded=0;exitX=1;exitY=0.5;exitDx=0;exitDy=0;" parent="1" source="kGepoieiEPkH4ZKb8_Zw-3" target="kGepoieiEPkH4ZKb8_Zw-5" edge="1">
          <mxGeometry width="160" relative="1" as="geometry">
            <mxPoint x="420" y="520" as="sourcePoint" />
            <mxPoint x="700" y="500" as="targetPoint" />
          </mxGeometry>
        </mxCell>
        <mxCell id="kGepoieiEPkH4ZKb8_Zw-6" value="&amp;lt;Include&amp;gt;" style="edgeLabel;html=1;align=center;verticalAlign=middle;resizable=0;points=[];" parent="kGepoieiEPkH4ZKb8_Zw-4" vertex="1" connectable="0">
          <mxGeometry x="-0.0916" y="-4" relative="1" as="geometry">
            <mxPoint as="offset" />
          </mxGeometry>
        </mxCell>
        <mxCell id="kGepoieiEPkH4ZKb8_Zw-8" style="edgeStyle=orthogonalEdgeStyle;rounded=0;orthogonalLoop=1;jettySize=auto;html=1;" parent="1" source="kGepoieiEPkH4ZKb8_Zw-5" target="kGepoieiEPkH4ZKb8_Zw-7" edge="1">
          <mxGeometry relative="1" as="geometry" />
        </mxCell>
        <mxCell id="kGepoieiEPkH4ZKb8_Zw-5" value="Sistema de gestión del tratamiento" style="ellipse;whiteSpace=wrap;html=1;" parent="1" vertex="1">
          <mxGeometry x="414" y="490" width="140" height="70" as="geometry" />
        </mxCell>
        <mxCell id="kGepoieiEPkH4ZKb8_Zw-7" value="Correo electronico" style="ellipse;whiteSpace=wrap;html=1;" parent="1" vertex="1">
          <mxGeometry x="414" y="600" width="140" height="70" as="geometry" />
        </mxCell>
      </root>
    </mxGraphModel>
  </diagram>
</mxfile>
